<svg width="226" height="73" viewBox="0 0 226 73" fill="none" xmlns="http://www.w3.org/2000/svg">
<path d="M29 39.5L51 2L79 55L83.5 49.5L96 72.5H1L22.5 34L29 39.5Z" fill="#7E22CE" stroke="#7E22CE"/>
<path d="M98.8182 49.5V26.2273H106.682C108.508 26.2273 110 26.5568 111.159 27.2159C112.326 27.8674 113.189 28.75 113.75 29.8636C114.311 30.9773 114.591 32.2197 114.591 33.5909C114.591 34.9621 114.311 36.2083 113.75 37.3295C113.197 38.4508 112.341 39.3447 111.182 40.0114C110.023 40.6705 108.538 41 106.727 41H101.091V38.5H106.636C107.886 38.5 108.89 38.2841 109.648 37.8523C110.405 37.4205 110.955 36.8371 111.295 36.1023C111.644 35.3598 111.818 34.5227 111.818 33.5909C111.818 32.6591 111.644 31.8258 111.295 31.0909C110.955 30.3561 110.402 29.7803 109.636 29.3636C108.871 28.9394 107.856 28.7273 106.591 28.7273H101.636V49.5H98.8182ZM125.898 49.8636C124.216 49.8636 122.765 49.4924 121.545 48.75C120.333 48 119.398 46.9545 118.739 45.6136C118.087 44.2652 117.761 42.697 117.761 40.9091C117.761 39.1212 118.087 37.5455 118.739 36.1818C119.398 34.8106 120.314 33.7424 121.489 32.9773C122.67 32.2045 124.049 31.8182 125.625 31.8182C126.534 31.8182 127.432 31.9697 128.318 32.2727C129.205 32.5758 130.011 33.0682 130.739 33.75C131.466 34.4242 132.045 35.3182 132.477 36.4318C132.909 37.5455 133.125 38.9167 133.125 40.5455V41.6818H119.67V39.3636H130.398C130.398 38.3788 130.201 37.5 129.807 36.7273C129.42 35.9545 128.867 35.3447 128.148 34.8977C127.436 34.4508 126.595 34.2273 125.625 34.2273C124.557 34.2273 123.633 34.4924 122.852 35.0227C122.08 35.5455 121.485 36.2273 121.068 37.0682C120.652 37.9091 120.443 38.8106 120.443 39.7727V41.3182C120.443 42.6364 120.67 43.7538 121.125 44.6705C121.587 45.5795 122.227 46.2727 123.045 46.75C123.864 47.2197 124.814 47.4545 125.898 47.4545C126.602 47.4545 127.239 47.3561 127.807 47.1591C128.383 46.9545 128.879 46.6515 129.295 46.25C129.712 45.8409 130.034 45.3333 130.261 44.7273L132.852 45.4545C132.58 46.3333 132.121 47.1061 131.477 47.7727C130.833 48.4318 130.038 48.947 129.091 49.3182C128.144 49.6818 127.08 49.8636 125.898 49.8636ZM142.341 49.9091C141.235 49.9091 140.231 49.7008 139.33 49.2841C138.428 48.8598 137.712 48.25 137.182 47.4545C136.652 46.6515 136.386 45.6818 136.386 44.5455C136.386 43.5455 136.583 42.7348 136.977 42.1136C137.371 41.4848 137.898 40.9924 138.557 40.6364C139.216 40.2803 139.943 40.0152 140.739 39.8409C141.542 39.6591 142.348 39.5152 143.159 39.4091C144.22 39.2727 145.08 39.1705 145.739 39.1023C146.405 39.0265 146.89 38.9015 147.193 38.7273C147.504 38.553 147.659 38.25 147.659 37.8182V37.7273C147.659 36.6061 147.352 35.7348 146.739 35.1136C146.133 34.4924 145.212 34.1818 143.977 34.1818C142.697 34.1818 141.693 34.4621 140.966 35.0227C140.239 35.5833 139.727 36.1818 139.432 36.8182L136.886 35.9091C137.341 34.8485 137.947 34.0227 138.705 33.4318C139.47 32.8333 140.303 32.4167 141.205 32.1818C142.114 31.9394 143.008 31.8182 143.886 31.8182C144.447 31.8182 145.091 31.8864 145.818 32.0227C146.553 32.1515 147.261 32.4205 147.943 32.8295C148.633 33.2386 149.205 33.8561 149.659 34.6818C150.114 35.5076 150.341 36.6136 150.341 38V49.5H147.659V47.1364H147.523C147.341 47.5152 147.038 47.9205 146.614 48.3523C146.189 48.7841 145.625 49.1515 144.92 49.4545C144.216 49.7576 143.356 49.9091 142.341 49.9091ZM142.75 47.5C143.811 47.5 144.705 47.2917 145.432 46.875C146.167 46.4583 146.72 45.9205 147.091 45.2614C147.47 44.6023 147.659 43.9091 147.659 43.1818V40.7273C147.545 40.8636 147.295 40.9886 146.909 41.1023C146.53 41.2083 146.091 41.303 145.591 41.3864C145.098 41.4621 144.617 41.5303 144.148 41.5909C143.686 41.6439 143.311 41.6894 143.023 41.7273C142.326 41.8182 141.674 41.9659 141.068 42.1705C140.47 42.3674 139.985 42.6667 139.614 43.0682C139.25 43.4621 139.068 44 139.068 44.6818C139.068 45.6136 139.413 46.3182 140.102 46.7955C140.799 47.2652 141.682 47.5 142.75 47.5ZM157.736 43.1364L157.69 39.8182H158.236L165.872 32.0455H169.19L161.054 40.2727H160.827L157.736 43.1364ZM155.236 49.5V26.2273H157.918V49.5H155.236ZM166.327 49.5L159.509 40.8636L161.418 39L169.736 49.5H166.327Z" fill="black"/>
<path d="M191.608 26.2273V49.5H187.858L176.892 33.6477H176.699V49.5H172.483V26.2273H176.256L187.21 42.0909H187.415V26.2273H191.608ZM203.747 49.8409C201.997 49.8409 200.486 49.4773 199.213 48.75C197.948 48.0152 196.974 46.9773 196.293 45.6364C195.611 44.2879 195.27 42.7008 195.27 40.875C195.27 39.0795 195.611 37.5038 196.293 36.1477C196.982 34.7841 197.944 33.7235 199.179 32.9659C200.414 32.2008 201.865 31.8182 203.531 31.8182C204.607 31.8182 205.622 31.9924 206.577 32.3409C207.539 32.6818 208.387 33.2121 209.122 33.9318C209.865 34.6515 210.448 35.5682 210.872 36.6818C211.296 37.7879 211.509 39.1061 211.509 40.6364V41.8977H197.202V39.125H207.565C207.558 38.3371 207.387 37.6364 207.054 37.0227C206.721 36.4015 206.255 35.9129 205.656 35.5568C205.065 35.2008 204.376 35.0227 203.588 35.0227C202.747 35.0227 202.009 35.2273 201.372 35.6364C200.736 36.0379 200.24 36.5682 199.884 37.2273C199.535 37.8788 199.357 38.5947 199.349 39.375V41.7955C199.349 42.8106 199.535 43.6818 199.906 44.4091C200.277 45.1288 200.796 45.6818 201.463 46.0682C202.13 46.447 202.91 46.6364 203.804 46.6364C204.402 46.6364 204.944 46.553 205.429 46.3864C205.914 46.2121 206.334 45.9583 206.69 45.625C207.046 45.2917 207.315 44.8788 207.497 44.3864L211.338 44.8182C211.096 45.8333 210.634 46.7197 209.952 47.4773C209.277 48.2273 208.414 48.8106 207.361 49.2273C206.308 49.6364 205.103 49.8409 203.747 49.8409ZM223.705 32.0455V35.2273H213.67V32.0455H223.705ZM216.148 27.8636H220.261V44.25C220.261 44.803 220.345 45.2273 220.511 45.5227C220.686 45.8106 220.913 46.0076 221.193 46.1136C221.473 46.2197 221.784 46.2727 222.125 46.2727C222.383 46.2727 222.617 46.2538 222.83 46.2159C223.049 46.178 223.216 46.1439 223.33 46.1136L224.023 49.3295C223.803 49.4053 223.489 49.4886 223.08 49.5795C222.678 49.6705 222.186 49.7235 221.602 49.7386C220.572 49.7689 219.644 49.6136 218.818 49.2727C217.992 48.9242 217.337 48.3864 216.852 47.6591C216.375 46.9318 216.14 46.0227 216.148 44.9318V27.8636Z" fill="#7E22CE"/>
</svg>
